<?xml version="1.0" standalone="no"?><!DOCTYPE svg PUBLIC "-//W3C//DTD SVG 1.1//EN" "http://www.w3.org/Graphics/SVG/1.1/DTD/svg11.dtd"><svg t="1739934371640" class="icon" viewBox="0 0 1024 1024" version="1.1" xmlns="http://www.w3.org/2000/svg" p-id="14946" xmlns:xlink="http://www.w3.org/1999/xlink" width="200" height="200"><path d="M708.266667 0h-392.533334C204.458667 0 133.9392 0.426667 67.242667 67.106133 0.443733 133.9392 0 204.8 0 315.733333v392.533334c0 111.274667 0.443733 181.8112 67.106133 248.490666C133.973333 1023.5904 204.8 1024 315.733333 1024h392.533334c111.274667 0 181.794133-0.4096 248.490666-67.106133C1023.556267 890.077867 1024 819.2 1024 708.266667v-392.533334c0-111.274667-0.426667-181.8112-67.106133-248.490666C890.026667 0.4096 819.2 0 708.266667 0z m108.3392 936.738133s-84.241067 21.572267-135.9872-7.492266c-40.055467-22.493867-72.635733-72.260267-75.3664-74.6496-23.893333 8.925867-77.192533 8.925867-88.439467 8.925866-107.861333 0-194.218667-34.184533-259.072-102.570666C192.853333 692.565333 160.426667 601.429333 160.426667 487.560533c0-115.165867 32.597333-206.609067 97.757866-274.346666 65.194667-67.754667 153.156267-101.614933 263.918934-101.614934s198.656 33.9456 263.68 101.853867c65.006933 67.8912 97.501867 159.744 97.501866 275.5584 0 150.9376-54.647467 259.4816-163.959466 325.632-0.477867 0.273067 9.796267 20.5824 29.047466 30.907733 19.234133 10.325333 55.534933 9.045333 55.534934 9.045334l12.680533 82.141866z m-252.757334-186.7776c8.6528-2.321067-9.045333-22.954667-29.320533-37.5808-25.7024-18.517333-66.6112-20.8384-66.6112-20.8384v-58.436266s56.2176-15.377067 106.478933 0c50.244267 15.394133 70.980267 62.9248 74.308267 58.436266 1.365333-1.8432 6.144-7.611733 7.458133-9.540266 34.0992-49.152 51.1488-115.933867 51.1488-200.311467 0-82.141867-17.066667-147.968-51.1488-197.461333-34.0992-49.476267-79.479467-74.205867-136.157866-74.205867-56.968533 0-102.5024 24.746667-136.6016 74.222933-34.0992 49.493333-51.1488 115.6096-51.1488 198.4 0 82.158933 16.981333 148.206933 50.926933 198.161067 33.9456 49.9712 78.813867 74.939733 134.6048 74.939733 16.298667 0 31.6416-1.928533 46.045867-5.7856z" fill="#808080" p-id="14947"></path></svg>