<?xml version="1.0" standalone="no"?><!DOCTYPE svg PUBLIC "-//W3C//DTD SVG 1.1//EN" "http://www.w3.org/Graphics/SVG/1.1/DTD/svg11.dtd"><svg t="1739934479938" class="icon" viewBox="0 0 1024 1024" version="1.1" xmlns="http://www.w3.org/2000/svg" p-id="15265" xmlns:xlink="http://www.w3.org/1999/xlink" width="200" height="200"><path d="M555.437 744.856c9.653-3.219-9.653-24.132-30.567-38.61-27.348-19.305-69.178-22.523-69.178-22.523v-61.134s57.917-16.090 111.006 0c53.090 16.090 74.004 65.962 77.222 61.134 1.609-1.609 6.434-8.043 8.043-9.653 35.394-51.483 53.090-120.659 53.090-209.145 0-85.266-17.696-154.447-53.090-205.926-35.394-51.483-82.049-77.222-141.573-77.222-59.525 0-106.181 25.741-143.184 77.222-35.394 51.483-53.090 120.659-53.090 207.534 0 85.266 17.696 154.447 53.090 205.926 35.394 51.483 82.049 78.831 139.964 78.831 17.696-1.609 33.786-3.219 48.265-6.434zM819.279 939.52s-88.485 22.523-141.573-8.043c-41.828-24.132-75.615-75.615-78.831-77.222-24.132 9.653-80.441 9.653-91.7 9.653-112.617 0-202.708-35.394-270.278-106.181-67.569-70.787-101.356-165.705-101.356-284.757 0-120.659 33.786-215.58 101.356-286.366 67.569-70.787 159.27-106.181 275.104-106.181 115.833 0 207.534 35.394 275.104 106.181s101.356 167.315 101.356 287.973c0 157.662-56.308 270.278-170.532 339.456 0 0 9.653 20.914 30.567 32.174 19.305 11.263 57.917 9.653 57.917 9.653l12.87 83.658z" fill="currentColor" p-id="15266"></path></svg>